PathFileType	4	(X/Y/Z)	OpenSim_Sub09_CSStiffKnee_Accel.trc
DataRate	CameraRate	NumFrames	NumMarkers	Units	OrigDataRate	OrigDataStartFrame	OrigNumFrames
100	100	13	8	m	100	1782	7127
Frame#	Time	torso_imu_offset_imu	pelvis_imu_offset_imu	tibia_r_imu_offset_imu	femur_r_imu_offset_imu	tibia_l_imu_offset_imu	femur_l_imu_offset_imu	toes_r_imu_offset_imu	toes_l_imu_offset_imu
				X1	Y1	Z1	X2	Y2	Z2	X3	Y3	Z3	X4	Y4	Z4	X5	Y5	Z5	X6	Y6	Z6	X7	Y7	Z7	X8		Y8	Z8	

1782	17.81000000	9.69607765	-0.48807639	4.44501919	7.83474695	2.64700201	2.17017267	10.06165822	0.19120308	1.81850126	9.41150328	-0.52545645	0.95064026	8.40320772	-3.49995347	2.57011217	7.37049767	3.98279539	1.08834973	5.43379056	-2.23889965	8.19608976	10.52828878	-2.95896092	5.78741839
1783	17.82000000	9.90791806	-0.63340025	4.48376619	7.82582236	2.38996603	1.90476516	10.09683636	-0.15288747	1.71307787	9.53116741	-0.45113756	1.26298139	8.29593690	-3.32778319	2.75114456	7.03344429	4.28953632	0.62738794	5.51429385	-2.25226570	8.12638165	10.93154628	-3.22872779	5.13157787
1784	17.83000000	9.98180423	-0.55365285	4.52985557	7.84924091	2.13272254	1.70265137	9.74369050	-0.05105461	1.68566320	9.55317980	-0.61994963	1.39064549	8.25320916	-2.85677457	3.01322568	6.96579386	4.40035040	0.38801902	5.74047148	-2.33276991	7.90970446	11.18981719	-3.00290781	4.28828598
1785	17.84000000	9.98349453	-0.59108221	4.47227740	7.92559323	1.99880800	1.51971970	9.59019815	0.30959608	1.46220295	9.43605011	-0.91942837	1.34931148	8.17680502	-2.44522076	3.33898588	6.89866134	4.67849647	0.58192700	5.72079917	-2.23134684	8.03543955	11.48696963	-2.75347712	3.69275159
1786	17.85000000	9.88490969	-0.62443776	4.49753234	7.96314248	1.94947243	1.34072611	9.64396343	0.64643381	1.54199722	9.39235417	-1.25664396	1.13036193	7.86871372	-2.46048941	3.41152352	6.87452616	4.96588611	0.75398965	5.63463688	-2.35639020	8.06968516	12.12345170	-3.94733585	3.05674146
1787	17.86000000	9.88598129	-0.56714300	4.44076344	7.95529095	1.91505508	1.10611341	9.67275893	0.69647864	1.71401308	9.40625758	-1.58700590	0.99268998	7.61211032	-2.68815223	3.18634428	6.83667791	5.20427303	0.79773130	5.76363560	-2.29756933	8.00208415	11.28590762	1.18536993	4.54464982
1788	17.87000000	9.85918280	-0.58456896	4.29317834	8.12069132	1.98082922	1.30851330	9.56269919	0.68578076	1.62200812	9.37352268	-1.96895454	0.88140884	7.54702338	-3.43691467	3.32451697	6.94940762	5.23415054	0.96071743	5.82132028	-2.12443829	8.10416287	15.36380811	-0.25629876	-1.51379024
1789	17.88000000	10.07264673	-0.51597743	4.36199900	8.15728736	1.95574227	1.71197484	9.73255318	0.56033163	1.26960897	9.36253906	-2.30140157	0.96222412	9.38672117	-1.29371876	4.15844482	7.22794000	5.36595949	0.84823594	5.66526510	-2.07743516	8.41567708	26.76356798	-9.52996234	-8.18413004
1790	17.89000000	10.38888200	-0.48257764	4.48781848	8.93767554	1.76050909	2.98692005	10.25314507	0.15665886	1.33889828	9.37121369	-2.59452657	1.03385064	12.01880555	-0.72053343	7.03275507	7.89976230	5.65945153	1.44059862	5.29155286	-2.23955218	8.90895599	22.02566156	-18.03659171	-4.23428048
1791	17.90000000	11.38674378	-0.38810852	5.17534912	10.55080622	0.93663374	5.64592942	11.15630589	-0.68162672	1.08794037	9.37763890	-2.81970192	0.95875784	16.96082879	-6.16481513	7.86908978	10.98088151	5.91494610	2.77078591	4.99505530	-2.44774748	9.56588275	20.59957191	-4.78653529	29.53091397
1792	17.91000000	13.72681413	-0.09923409	6.34183632	12.03477248	-1.06771158	6.90633015	13.05195716	-1.81904113	0.11688647	9.83129052	-2.87937952	1.29904221	22.68638160	-15.85476597	5.12770881	19.96572029	5.83022171	2.83651871	4.48574901	-0.88312105	11.40902392	18.98637874	1.97916001	27.67532956
1793	17.92000000	14.37030550	0.98932802	7.51677952	14.11168393	-3.10737554	7.30047022	15.27911803	-2.96200433	2.15839255	11.14251217	-2.35479650	1.78852718	21.39861577	-16.80299433	5.48597682	29.92242123	5.55026324	0.63945700	1.94128969	-8.74938322	10.92174630	18.47678138	-2.26023759	13.84511089
1794	17.93000000	12.89767337	2.68161677	7.72288716	16.56459579	-4.11339155	7.29314296	17.25296149	-4.22241900	3.68589201	13.57061283	-0.69872400	1.86223670	15.66030147	-13.18249900	5.58329277	28.38638117	4.42032754	-2.06530775	2.33974429	-8.06975395	12.16787784	11.88516331	-1.60000543	14.58196819
